<svg preserveAspectRatio="none" overflow="visible" style="display: block;" width="452.914" height="77.207" viewBox="0 0 452.914 77.207" fill="none" xmlns="http://www.w3.org/2000/svg">
<g id="Group 29">
<g id="Layer_1">
</g>
<path id="Union" fill-rule="evenodd" clip-rule="evenodd" d="M351.013 21.6916H343.821V28.2339H351.013V21.6916ZM343.96 31.1571V54.5423H350.781V31.1571H343.96ZM369.468 54.3106C368.355 54.6818 367.055 54.9138 365.664 54.9138C360.606 54.9138 356.755 52.2226 356.755 46.5619V36.818H353.043V31.1573H356.755V24.383H363.576V31.1573H369.236V36.818H363.576V45.6803C363.576 47.7683 364.689 48.9747 366.359 48.9747C367.195 48.9747 368.215 48.8355 369.004 48.4179L369.468 54.3106ZM411.191 54.3106C410.078 54.6818 408.779 54.9138 407.387 54.9138C402.329 54.9138 398.478 52.2226 398.478 46.5619V36.818H394.766V31.1573H398.478V24.383H405.299V31.1573H410.959V36.818H405.299V45.6803C405.299 47.7683 406.412 48.9747 408.083 48.9747C408.918 48.9747 409.939 48.8355 410.727 48.4179L411.191 54.3106ZM449.11 54.9138C450.502 54.9138 451.801 54.6818 452.914 54.3106L452.45 48.4179C451.662 48.8355 450.641 48.9747 449.806 48.9747C448.135 48.9747 447.022 47.7683 447.022 45.6803V36.818H452.682V31.1573H447.022V24.383H440.201V31.1573H436.489V36.818H440.201V46.5619C440.201 52.2226 444.052 54.9138 449.11 54.9138ZM435.77 44.7985C435.816 44.2881 435.863 43.1745 435.863 42.2465C435.863 37.0498 432.29 30.7859 423.845 30.7859C415.772 30.7859 412.246 37.0498 412.246 42.8497C412.246 48.6496 416.189 54.9135 424.263 54.9135C429.831 54.9135 434.007 52.3616 435.399 47.9536L428.996 46.2369C428.485 48.1856 426.769 49.2528 424.449 49.2528C421.572 49.2528 419.623 47.6752 418.973 44.7985H435.77ZM428.578 39.973H419.066C419.716 37.2354 421.386 35.8434 423.845 35.8434C426.861 35.8434 428.346 37.6066 428.578 39.973ZM394.046 44.7985C394.092 44.2881 394.139 43.1745 394.139 42.2465C394.139 37.0498 390.566 30.7859 382.121 30.7859C374.048 30.7859 370.521 37.0498 370.521 42.8497C370.521 48.6496 374.465 54.9135 382.539 54.9135C388.107 54.9135 392.283 52.3616 393.675 47.9536L387.272 46.2369C386.761 48.1856 385.044 49.2528 382.724 49.2528C379.848 49.2528 377.899 47.6752 377.249 44.7985H394.046ZM386.854 39.973H377.342C377.992 37.2354 379.662 35.8434 382.121 35.8434C385.137 35.8434 386.622 37.6066 386.854 39.973ZM332.085 54.9136C326.378 54.9136 322.851 51.4336 321.645 47.9073L327.12 45.7729C327.677 47.9537 329.487 49.7633 332.085 49.7633C333.894 49.7633 335.101 48.8817 335.101 47.5825C335.101 46.1478 333.203 45.6514 330.893 45.0471C327.301 44.1076 322.712 42.9074 322.712 37.5139C322.712 33.8483 325.914 30.786 331.064 30.786C335.843 30.786 339.787 33.1059 340.854 36.4931L335.379 38.7666C334.776 36.6323 332.874 35.6579 331.296 35.6579C329.765 35.6579 328.698 36.3075 328.698 37.3283C328.698 38.7577 330.562 39.1825 332.855 39.705C336.517 40.5394 341.272 41.6228 341.272 47.4433C341.272 51.48 337.56 54.9136 332.085 54.9136ZM317.937 37.1427C319.004 37.1427 320.118 37.3283 320.907 37.6995L321.324 31.1572C320.675 30.9252 319.608 30.786 318.819 30.786C316.035 30.786 313.019 32.6883 311.952 35.1939V31.1572H305.131V54.5424H311.952V46.0977C311.952 39.4626 314.875 37.1427 317.937 37.1427ZM302.628 42.2466C302.628 43.1746 302.582 44.2882 302.536 44.7986H285.739C286.389 47.6753 288.338 49.2529 291.214 49.2529C293.534 49.2529 295.251 48.1857 295.761 46.2369L302.164 47.9537C300.773 52.3616 296.597 54.9136 291.029 54.9136C282.955 54.9136 279.011 48.6497 279.011 42.8498C279.011 37.0499 282.538 30.786 290.611 30.786C299.056 30.786 302.628 37.0499 302.628 42.2466ZM285.832 39.973H295.344C295.112 37.6067 293.627 35.8435 290.611 35.8435C288.152 35.8435 286.482 37.2355 285.832 39.973ZM256.833 31.1578L265.324 54.5431H271.495L279.986 31.1578H273.119L268.386 46.6552L263.653 31.1578H256.833ZM248.122 21.6917H255.314V28.234H248.122V21.6917ZM248.261 54.5424V31.1572H255.082V54.5424H248.261ZM221.6 31.1572V54.5424H228.421V44.2882C228.421 39.4626 230.091 36.8179 233.339 36.8179C235.798 36.8179 237.376 38.5346 237.376 41.0866V54.5424H244.15V39.277C244.15 34.1267 240.716 30.786 235.566 30.786C232.365 30.786 229.813 32.2243 228.421 34.2659V31.1572H221.6ZM217.443 31.1578V54.5431H210.669V51.4343C209.231 53.4759 206.679 54.9143 203.524 54.9143C198.373 54.9143 194.893 51.5735 194.893 46.4232V31.1578H201.714V44.6136C201.714 47.1656 203.292 48.8824 205.704 48.8824C208.952 48.8824 210.669 46.2376 210.669 41.4121V31.1578H217.443ZM191.819 44.7985C191.866 44.2882 191.912 43.1746 191.912 42.2466C191.912 37.0499 188.339 30.786 179.895 30.786C171.821 30.786 168.295 37.0499 168.295 42.8498C168.295 48.6497 172.239 54.9136 180.312 54.9136C185.88 54.9136 190.056 52.3616 191.448 47.9537L185.045 46.2369C184.535 48.1857 182.818 49.2529 180.498 49.2529C177.621 49.2529 175.672 47.6753 175.023 44.7985H191.819ZM184.627 39.973H175.116C175.765 37.2355 177.436 35.8435 179.895 35.8435C182.911 35.8435 184.396 37.6067 184.627 39.973ZM161.106 54.5424L154.749 44.8913L152.198 47.4433V54.5424H145.33V21.6917H152.198V38.813L159.993 31.1572H168.53L159.297 40.3442L169.226 54.5424H161.106ZM134.392 21.6917V54.5424H141.213V21.6917H134.392ZM119.858 54.9136C112.62 54.9136 107.516 49.8097 107.516 42.8498C107.516 35.8899 112.62 30.786 119.858 30.786C127.003 30.786 132.2 35.8899 132.2 42.8498C132.2 49.8097 127.003 54.9136 119.858 54.9136ZM119.858 49.1137C123.152 49.1137 125.379 46.5617 125.379 42.8498C125.379 39.1378 123.152 36.5859 119.858 36.5859C116.517 36.5859 114.29 39.1378 114.29 42.8498C114.29 46.5617 116.517 49.1137 119.858 49.1137ZM85.2451 22.0636V54.5431H92.5762V40.9481H104.826V34.6378H92.5762V28.3275H107.795V22.0636H85.2451Z" fill="#00205B"/>
<path id="Vector" fill-rule="evenodd" clip-rule="evenodd" d="M53.0367 3.0107C52.3183 -0.000507301 52.3174 -0.000253647 52.3162 4.78693e-06L52.3138 0.000564718L52.3085 0.00182818L52.2958 0.00494376C52.2863 0.00728163 52.2745 0.0101459 52.2611 0.0135439C52.2339 0.0203421 52.1989 0.0292892 52.1563 0.0404569C52.0714 0.0627804 51.9568 0.0940653 51.8163 0.134917C51.5361 0.216437 51.1501 0.337083 50.6928 0.501996C49.7888 0.828102 48.555 1.34568 47.2954 2.10798C45.4689 3.21321 43.1884 5.09705 42.182 7.95907H20.4681C19.4616 5.09705 17.1812 3.21321 15.3548 2.10799C14.0951 1.34568 12.8612 0.828102 11.9572 0.501996C11.5 0.337084 11.114 0.216437 10.8338 0.134917C10.6934 0.0940653 10.5786 0.0627804 10.4937 0.0404569C10.4512 0.0292892 10.4161 0.0203421 10.389 0.0135439C10.3754 0.0101459 10.3638 0.00728163 10.3542 0.00494376L10.3414 0.00182818L10.3362 0.000564718L10.3338 4.78693e-06C10.3327 -0.000253647 10.3317 -0.000507301 9.61349 3.0107C8.89526 6.02189 8.89427 6.02165 8.89332 6.02144L8.89155 6.021L8.88856 6.02029L8.88545 6.01954C8.88961 6.02057 8.90102 6.02347 8.91919 6.02823C8.95553 6.0378 9.01859 6.05484 9.10449 6.07985C9.2769 6.13 9.53754 6.211 9.85637 6.326C10.5043 6.55972 11.3398 6.91502 12.1493 7.40494C12.8458 7.82638 13.4118 8.27285 13.839 8.7488C5.83824 11.1131 0 18.5167 0 27.2839C0 33.6811 3.10836 39.3526 7.89717 42.8699L7.88866 42.8701C9.48224 53.8856 17.8469 60.8916 30.5105 60.8916H31.4706V75.7729C44.2901 65.7262 52.3557 55.6968 54.5229 43.0367C59.4425 39.5337 62.6511 33.7838 62.6511 27.2842C62.6511 18.5167 56.8124 11.1126 48.8113 8.74854C49.2384 8.27271 49.8043 7.82631 50.5007 7.40494C51.3102 6.91502 52.1458 6.55972 52.7938 6.326C53.1125 6.211 53.3731 6.13 53.5456 6.07985C53.6316 6.05484 53.6945 6.0378 53.7309 6.02823L53.7476 6.02388L53.7598 6.02077L53.7584 6.021L53.7567 6.02144C53.7557 6.02165 53.7548 6.02189 53.0367 3.0107ZM6.19134 27.2839C6.19134 20.0305 12.0714 14.1504 19.3249 14.1504H43.3262C50.5796 14.1504 56.4597 20.0305 56.4597 27.2839C56.4597 34.5375 50.5796 40.4179 43.3262 40.4179H19.3249C12.0714 40.4179 6.19134 34.5375 6.19134 27.2839ZM15.4323 27.0001C15.4323 25.6417 16.5335 24.5407 17.8918 24.5407C19.2501 24.5407 20.3512 25.6417 20.3512 27.0001C20.3512 28.3583 19.2501 29.4595 17.8918 29.4595C16.5335 29.4595 15.4323 28.3583 15.4323 27.0001ZM28.6761 34.6632H33.975H33.9757C33.9757 34.6402 33.9755 34.6175 33.9755 34.5945C33.9987 32.4196 35.125 29.9233 37.0508 27.9001C37.354 30.4655 38.931 32.8225 41.438 34.0092C45.3109 35.8424 49.9367 34.1889 51.7699 30.316C53.6031 26.443 51.9496 21.8174 48.0766 19.9842C47.0132 19.4808 45.8929 19.2403 44.7893 19.2365C40.527 18.9548 36.5278 20.9882 33.6713 23.7818C32.8073 24.6268 32.0138 25.5739 31.3258 26.5957C30.6378 25.5739 29.8444 24.6268 28.9805 23.7818C26.1047 20.9694 22.0709 18.9275 17.7765 19.2425C13.5448 19.3042 10.1334 22.7537 10.1334 27.0001C10.1334 31.2849 13.6069 34.7584 17.8918 34.7584C21.873 34.7584 25.1538 31.7599 25.5989 27.8977C27.5259 29.9214 28.6529 32.4186 28.6764 34.5945L28.6761 34.6273V34.6632ZM43.7053 29.2198C42.4775 28.6385 41.9532 27.1722 42.5344 25.9444C43.1154 24.7168 44.5818 24.1925 45.8096 24.7738C47.0374 25.3548 47.5615 26.8211 46.9805 28.0489C46.3992 29.2767 44.9328 29.8008 43.7053 29.2198ZM8.88394 6.01916C8.88341 6.01904 8.88367 6.01909 8.88473 6.01935L8.88394 6.01916Z" fill="#FF3F2E"/>
</g>
</svg>
