<?xml version='1.0' encoding='utf-8'?>
<svg xmlns="http://www.w3.org/2000/svg" fill="none" viewBox="0 0 1500 1500" width="1500" height="1500"><defs><clipPath id="assetClipPath_efA5cyYX"><path d="m0 0 h 871.596 v 1090.049 h -871.596 v -1090.049 z" id="path_vGoEqOo4" fill="#ffffff" /></clipPath><clipPath id="assetClipPath_80ejnYZi"><path d="m0 0 h 1031.768 v 1059.071 h -1031.768 v -1059.071 z" id="path_PBO3XOAc" fill="#ffffff" /></clipPath></defs><g transform="translate(387 187)" data-asset-index="0"><g clip-path="url(#assetClipPath_efA5cyYX)" transform="scale(1.0004635175012275 0.9999550478923425)" data-asset-index="0"><path d="M13.526,49.207c3.31-36.702,784.422-44.402,822.056-7.847,15.406,14.964,1.045,171.895,6.901,360.636,8.449,272.338,31.573,606.206,16.611,635.894-25.33,50.263-790.986,53.732-822.772,28.044C4.535,1040.246,3.061,165.243,13.526,49.207Z" fill="#FFFFFF" id="eNU4_edSZ_xOMHPRmKC7D" /><path d="M804.247,1069.851c23.486-.33,62.001-1.075,63.337-32.159,1.134-17.801,2.63-33.146,3.162-51.413,5.251-286.869-27.802-573.113-20.011-860.049-1.069-50.122,18.379-107.169-49.709-118.122-78.309-12.721-158.363-7.288-237.355-6.714C388.19,4.639,213.122,17.435,38.095,29.697c-13.36.824-32.79,2.252-34.177,19.423-1.432,7.558-1.602,15.464-2.006,23.114-3.598,98.445-1.461,197.016-.751,295.5,2.65,201.095,6.215,402.204,13.446,603.192,2.293,28.932-.986,81.05,14.579,104.085,7.319,10.108,18.513,12.211,30.26,12.982,14.084.924,28.22,1.577,42.337,1.776,199.992.772,399.98-3.377,599.95-5.979,12.727-.231,25.471-.376,38.189-.882,14.659-.583,13.825-33.572-.81-32.99-146.51,5.498-293.137,6.949-439.725,9.071-83.065.12-166.436,4.218-249.347-1.209,2.531.422-1.146-.313-1.774-.497-.869-.255-1.73-.542-2.566-.889-.975-.405-3.42-2.255-1.064-.38-.787-.626-1.608-1.465-2.447-2.002-1.377-.88.457.405.684.788-.284-.479-.703-.901-1.013-1.369-1.957-2.956.154,1.13-.419-.627-.425-1.304-1.044-2.664-1.55-3.943,1.353,3.425-.221-.937-.526-2.266-.825-3.592-1.407-7.24-1.903-10.89-8.739-131.218-9.949-273.619-13.772-408.725-3.111-183.626-9.443-383.843-4.124-559.324.29-4.172.653-8.348,1.405-12.461.207-1.832-1.393,4.027-.215,1.164.08-.194-2.146,4.862-2.661,4.261-.218-.255,8.865-3.257,9.957-3.428,213.779-17.893,428.57-25.837,643.104-26.635,30.834,1.514,147.018-2.936,158.67,24.22,4.168,9.397,1.331,20.291,1.477,30.276-.474,13.201-.875,26.405-1.206,39.611-8.349,299.67,26.171,626.466,20.018,912.322-9.876,9.049-31.224,12.253-46.32,14.622-7.909,1.193-7.778,18.512.448,18.244Z" fill="#111111" id="Eicl2yPHWpljjKPG8TCJS" /></g></g><g transform="translate(140 265)" data-asset-index="1"><g clip-path="url(#assetClipPath_80ejnYZi)" transform="scale(0.999255646618232 0.9989887363547865)" data-asset-index="1"><path d="M197.217,62.085C240.474-14.816,955.193-8.782,998.33,18.948c43.137,27.731,34.468,838.25,28.306,921.442-6.162,83.192-54.754,103.132-110.215,112.376-55.462,9.244-681.054,8.956-787.306-5.111C60.511,1038.572-1.291,968.368.02,918.659c1.068-40.513,15.319-41.651,63.079-25.135,30.122,10.417,96.506,14.924,113.934-1.125,29.027-26.729-7.548-781.015,20.183-830.314Z" fill="#FFE27A" id="Xfwki5pokNirD6yyRa_oS" /><path d="M96.936,907.428c7.611,1.912,15.177,4.237,22.996,5.037,7.94.813,15.699,1.438,23.677,1.549,15.559.217,31.105.564,46.664.339,30.403-.439,60.8-.809,91.199-1.459,58.526-1.251,117.054-1.845,175.59-2.313,119.874-.958,239.754.924,359.533,5.805,6.762.276,15.329-.172,21.348,1.206,1.482.339,2.803.943,4.207,1.491.322.126.738.403,1.485,1.431.916,1.26,1.71,2.603,2.468,3.962-1.337-2.396.727,1.472.973,1.939,6.975,13.24,15.008,25.768,24.662,37.223,19.129,22.698,42.328,41.067,69.064,54.05,7.668,3.723,13.456-6.91,14.225-12.925,1.021-7.984-.849-18.074-8.795-21.933-20.801-10.1-42.062-26.216-56.375-42.674-8.211-9.442-15.52-19.665-21.741-30.523-.035-.06-2.516-4.554-1.082-1.883-.739-1.376-1.436-2.775-2.165-4.156-1.843-3.492-3.634-7.044-6.087-10.157-5.253-6.668-11.732-10.229-20.038-11.592-14.553-2.389-30.027-1.744-44.754-2.301-15.59-.59-31.182-1.132-46.776-1.623-30.467-.96-60.94-1.729-91.417-2.302-117.599-2.212-235.161-1.288-352.723,2.246-34.041,1.023-68.04,2.396-102.05,4.175-17.451.913-34.824,2.206-52.233,3.72-8.586.747-16.994,1.596-25.483,3.115-9.224,1.65-17.769,4.499-26.644,7.469-3.71,1.241-3.598,10.114.272,11.086h0Z" fill="#111111" id="nOHEhRsa4XIRhdkNwaak-" /><path d="M923.338,87.569c-51.457,24.368-110.441,51.805-167.581,30.641,12.273-12.74,17.616-30.887,14.537-48.304-3.169-19.634-19.195-39.999-41.091-34.49-23.029,5.794-32.914,34.838-27.717,55.843,2.307,9.323,6.697,17.525,12.475,24.646-38.491,15.861-82.366,22.729-122.571,7.979,15.616-12.007,30.839-28.866,29.745-49.825-.785-13.644-8.988-24.934-21.968-29.299-19.983-6.72-50.345-6.783-61.926,14.035-11.065,19.893-3.077,43.714,10.358,60.624-35.096,13.911-88.263,20.625-124.901,10.284,25.277-14.75,33.327-63.174,1.635-75.401-19.081-6.655-40.576,5.327-47.21,23.799-5.298,14.751-3.213,31.271,3.936,45.16-31.133,11.322-63.812,19.498-97.199,17.996-4.93-.074-4.491,9.764-.722,11.255,36.785,13.891,76.336-.902,112.365-10.757,39.814,33.318,129.779,19.054,172.956-3.478,48.956,31.559,117.377,22.595,166.677-4.011,49.277,30.624,112.554,18.337,162.031-5.604,11.475-5.704,22.253-12.11,32.726-19.487,6.704-4.722,3.393-26.24-6.556-21.607ZM393.465,87.061c7.363-9.081,24.319-13.13,32.974-4.213-.381-.417,1.276,2.007,1.543,2.607.76,1.706.666,1.274.53,2.952-.087,1.071-.145,2.014-.511,3.31-3.811,12.621-16.388,19.58-27.795,24.471-4.736-5.164-8.719-11.893-9.44-18.456.083.386.016-1.382-.025-2.255.11-3.029,1.15-6.547,2.725-8.415ZM548.951,76.396c6.45-13.405,27.435-11.258,39.651-8.913,5.305,1.056,11.157,2.721,14.854,6.866-.131-.112.892,1.588.611,1.083-.267-.481.347-2.707.035.46.086-.873-.521,1.53-.977,2.552-2.843,6.06-7.737,10.83-12.753,15.14-7.171,6.253-14.829,11.756-23.118,16.426-8.799-7.442-18.326-18.295-18.911-30.221.048.313.303-2.573.301-2.564-.135.578-.54,1.269.306-.829ZM722.606,96.068c-4.064-5.316-7.816-11.601-6.996-18.588,1.855-12.066,16.282-24.138,28.962-16.244,6.138,3.844,9.093,10.643,9.207,17.876-1.189,11.94-11.116,20.72-20.625,27.107-3.945-2.958-7.576-6.332-10.548-10.151Z" fill="#111111" id="YtKq0SoPL5R5nsVrJvcxY" /><path d="M256.664,232.579c10.786-31.905,674.276-51.345,696.398-23.972,22.122,27.373,32.985,343.69,12.195,361.939-20.789,18.248-703.955,40.564-717.642,3.783-11.191-30.073.795-317.338,9.048-341.75Z" fill="#FFFFFF" id="On7xpLiHL-MmFjCG7hujP" /><path d="M241.99,503.647c8.903-7.137,18.632-13.109,28.4-18.99,19.867-12.372,40.361-24.623,63.341-30.162,2.793-.678,12.54-2.281,18.352-2.223,4.38-.078,8.765.226,13.092.905,2.177.258-2.566-.604.085.02,8.415,1.89,16.602,4.836,24.014,9.293,1.977,1.044-2.617-1.728-.327-.19,17.774,12.137,26.202,22.749,37.704,36.168,24.71,31.474,57.034,60.096,98.36,37.918,25.241-13.274,44.992-44.439,65.121-58.276,4.233-2.74,8.763-4.947,13.637-6.25-1.655.449-1.566.471-.898.356,6.064-1.217,10.889-.729,16.387-.03.124.016,3.221.505,1.216.168-2.026-.341,1.148.227,1.254.249,30.538,7.568,61.82,18.202,93.087,7.867,48.373-14.867,89.855-73.473,112.559-104.288,8.538-10.535,18.151-20.239,28.905-28.536,2.733-2.129,5.534-4.162,8.365-6.159.554-.391,3.398-2.26.336-.244,30.168-19.961,64.092-33.343,97.96-45.601,8.463-3.023,10.134-16.82,8.351-24.199s-7.163-16.471-16.079-13.229c-39.018,14.187-78.695,30.392-111.711,56.129-25.372,19.547-42.06,46.855-61.578,71.725-6.586,8.58-30.181,33.661-46.012,44.456-62.97,45.474-105.562-14.428-151.606,10.642-25.293,14.631-41.059,40.757-64.345,57.854-2.428,1.6-11.27,6.155-17.803,7.506-2.072.65,3.43-.574.235-.068-5.128.85-10.277,1.32-15.459.62-3.083-.301,1.209.358.135.072-5.774-.724-10.865-4.533-16.097-6.383,2.506.598,2.531,1.624,1.098.65-11.592-7.241-23.942-21.383-29.23-27.319-11.341-12.711-22.442-25.906-36.223-36.081-45.637-36.541-106.927-7.193-145.171,26.344-8.907,7.594-17.139,15.909-25.885,23.684-5.467,4.86-1.393,21.879,6.433,15.605h0Z" fill="#111111" id="ssZSlREWxr0q82FOT2YEj" /><path d="M694.479,648.223c-88.943,1.165-177.905.034-266.853,1.363-11.847.177-23.694.39-35.539.658-11.487.261-24.686-.818-35.63,3.01-7.718,2.7-7.417,20.75.564,22.955,9.829,2.716,20.905,1.364,31.021,1.137,10.675-.24,21.35-.464,32.027-.639,22.488-.369,44.978-.599,67.468-.788,45.294-.38,90.671-.431,135.945-1.934,23.859-.792,47.716-1.8,71.554-3.081,10.058-.54,9.542-22.813-.557-22.681h0Z" fill="#111111" id="Knt1ZTbgcaOyQGBOxJs_Z" /><path d="M357.53,770.606c24.161,5.137,48.919,5.954,73.54,5.743,25.003-.215,49.999-1.593,74.915-3.642,9.61-.79,19.175-1.962,28.73-3.25,4.975-.671,6.801-6.358,6.693-10.761-.088-3.604-2.239-10.957-7.213-10.42-45.335,4.892-91.066,9.53-136.718,8.327-13.011-.343-25.987-.777-38.869-2.787-6.708-1.047-7.311,15.464-1.077,16.789h0Z" fill="#111111" id="lcrVkfC5-9olV1ffQN1-w" /><path d="M624.114,761.413c85.212-1.408,170.434-.269,255.646.133,20.971.099,41.942.28,62.909.671,11.86.221,11.44-26.766-.663-26.992-85.165-1.59-170.41.06-255.545,2.513-20.957.604-41.926,1.802-62.853,3.057-9.142.548-8.673,20.77.506,20.619h0Z" fill="#111111" id="tYA-AfPKcvABopkrbsn5i" /><path d="M251.106,663.277c5.363,33.087,56.176,24.618,48.483-2.559-8.541-30.172-53.327-27.329-48.483,2.559Z" fill="#111111" id="xEj4ON5rL054kEyYyWzfy" /><path d="M251.106,767.705c-2.423,33.565,48.493,30.581,48.483-2.559-.009-31.357-46.303-27.64-48.483,2.559Z" fill="#111111" id="HdTIOOMfOL4VYfz3mbcjz" /></g></g></svg>