<?xml version='1.0' encoding='utf-8'?>
<svg xmlns="http://www.w3.org/2000/svg" fill="none" viewBox="0 0 1500 1500" width="1500" height="1500"><defs><clipPath id="assetClipPath_smQ_d2Ks"><path d="m0 0 h 616.4612 v 1071.773 h -616.4612 v -1071.773 z" id="path_0DjjVA0p" fill="#ffffff" /></clipPath><clipPath id="assetClipPath_hZ23xkUI"><path d="m0 0 h 305.6955 v 240.7222 h -305.6955 v -240.7222 z" id="path_5RNFZJ9j" fill="#ffffff" /></clipPath><clipPath id="assetClipPath_ZfuTYWeh"><path d="m0 0 h 165.2441 v 185.0602 h -165.2441 v -185.0602 z" id="path_Sg01cA8n" fill="#ffffff" /></clipPath><clipPath id="assetClipPath_t02n2AfF"><path d="m0 0 h 145.0677 v 150.7301 h -145.0677 v -150.7301 z" id="path_IhiHeH2e" fill="#ffffff" /></clipPath><clipPath id="assetClipPath_bHBP0smV"><path d="m0 0 h 254.4754 v 140.006 h -254.4754 v -140.006 z" id="path_7EzGndd_" fill="#ffffff" /></clipPath><clipPath id="assetClipPath_5kC1QCSp"><path d="m0 0 h 158.7114 v 165.8362 h -158.7114 v -165.8362 z" id="path_Cca6boym" fill="#ffffff" /></clipPath><clipPath id="assetClipPath_9v7AziR3"><path d="m0 0 h 452.9505 v 624.2074 h -452.9505 v -624.2074 z" id="path_mwlVE_qL" fill="#ffffff" /></clipPath><clipPath id="assetClipPath_wIRlNa-f"><path d="m0 0 h 314.751 v 272.311 h -314.751 v -272.311 z" id="path_11EQncON" fill="#ffffff" /></clipPath></defs><g transform="translate(451 220)" data-asset-index="0"><g clip-path="url(#assetClipPath_smQ_d2Ks)" transform="scale(1.0024961830525587 1.0020778653688796)" data-asset-index="0"><path d="M60.176,24.9808C122.9171,11.4191,470.005-2.1765,509.5066.2923c39.5016,2.4688,71.5966,22.2196,69.1278,91.3474-2.4688,69.1278,44.4393,808.3387,37.0327,858.4377-7.4065,50.0989-24.6885,89.6005-76.5343,99.4759-51.8458,9.8754-370.3274,22.2196-407.3602,22.2196s-89.4788-22.6452-94.7296-82.1357C31.0115,921.3012-2.9728,182.9872.2098,131.1414,3.3924,79.2955,14.7176,34.8068,60.176,24.9808Z" fill="#79D9FF" id="nDqJzRyjCXm_o69cP4otx" /><path d="M240.279,44.0403c48.8958-10.1621,100.0293-11.5418,123.113-7.6946,23.0837,3.8473,28.8546,46.1674-9.6182,51.9383-38.4728,5.7709-75.9429,8.1092-110.76,7.5858-32.2424-.4847-37.1591-44.6751-2.7348-51.8295Z" fill="#FFFFFF" id="DGKAV40VFdJgfiJq7OxoF" /></g></g><g transform="translate(975 257)" data-asset-index="1"><g clip-path="url(#assetClipPath_hZ23xkUI)" transform="scale(1.000996089245671 1.001154027339398)" data-asset-index="1"><g id="zIl0NJQKnAn7qG080By35">
    <path d="M28.9611,167.0679c-5.5903,19.4262-11.1807,38.8524-16.771,58.2786,22.8952-9.9541,45.7904-19.9083,68.6857-29.8624,3.7571-1.6335,7.6035-3.2898,11.6891-3.5932,4.6395-.3446,9.2044,1.0791,13.6679,2.3908,28.0457,8.2419,57.6163,12.6661,86.606,8.913,28.9898-3.7531,56.6277-16.9676,77.1404-37.7936,39.9875-40.5983,26.1434-94.9597-2.3089-116.3158-33.5283-25.166-81.1255-36.1778-122.8433-32.0424-41.7178,4.1355-90.6936,12.7895-117.6744,44.8755-12.1549,14.4547-22.7438,48.0774-11.8663,76.7544" fill="#FFFFFF" id="xUqUs49quyPDUFIjktpMn" />
    <path d="M290.4393,54.1748C243.417-7.2583,151.4519-8.1669,82.9454,11.5496,19.9553,26.8023-16.3623,84.4028,6.7635,146.6459c2.2988,5.6266,8.6049,10.0289,13.9419,5.174,5.7544-5.2349,5.2544-14.458,3.1042-21.1187-2.0185-6.1712-2.318-12.0286-2.3843-18.4565-.0503-.0331.2619-5.3401.3118-5.3828,1.2779-11.3675,4.9707-22.7441,11.9438-31.9102,28.2126-31.4716,73.2231-37.5732,113.0964-41.6394,40.3242-3.3585,82.8273,6.126,115.7662,30.179,15.9729,11.9665,24.1899,33.3964,20.5523,52.9912-8.7882,40.2952-52.1369,65.7346-90.6348,71.2986-30.6915,4.6731-61.2475-1.7177-90.7315-9.8557-8.6564-2.0234-15.8112-.5136-23.9079,2.7676-17.0815,6.7645-33.8646,14.2317-50.615,21.7754,2.1003-11.1903,4.6486-22.2803,6.6301-33.4922,1.0982-6.1802-5.7549-14.1982-9.2915-5.6494-3.731,9.0186-7.075,18.1753-10.571,27.2876-3.479,9.0684-7.9646,17.8486-10.7092,27.1709-1.6411,5.5732-1.7493,11.9082,1.2107,17.0913,2.1755,3.8096,6.0664,7.2568,10.7681,5.2603,21.7319-9.3204,43.6834-18.1482,65.0872-28.2114,6.9316-3.1778,12.543-6.0694,20.2817-4.1499,29.5073,8.0409,60.001,14.8342,90.7533,11.0497,80.324-6.8746,145.9318-88.6594,99.0734-164.6503Z" fill="#111111" id="iwXuAoYU1dODMSsp89xEY" />
  </g><g id="tGH3bt28uXjCq_EO3tv5e">
    <path d="M89.9836,92.5101c14.5998-11.8623,29.8658,9.5382,14.4277,20.1987-15.3995,10.6339-25.9698-10.8208-14.4277-20.1987Z" fill="#111111" id="e-WnX449k0eGbUWPo1ObY" />
    <path d="M145.3769,92.8492c18.9204-9.5173,32.9403,12.6399,16.4565,22.2824-18.2973,10.7033-29.8306-15.5549-16.4565-22.2824Z" fill="#111111" id="HPPbBG5YI93N3FIgZ_Gz_" />
    <path d="M197.5791,101.1097c14.5998-11.8623,31.0195,11.5421,14.4277,20.1987-16.5918,8.6566-25.9698-10.8208-14.4277-20.1987Z" fill="#111111" id="byq7M0UnBUjX2kUB7zjr" />
  </g></g></g><g transform="translate(368 509)" data-asset-index="2"><g clip-path="url(#assetClipPath_ZfuTYWeh)" transform="scale(1.0045744447154241 1.00507834747828)" data-asset-index="2"><path d="M87.1185,81.5561c-11.0727-19.7526-13.0234-32.876-.1052-51.4742,4.9674-7.1516,11.0351-14.2348,19.3602-16.787,12.3015-3.7713,25.5355,3.7184,33.7124,13.6526,14.5681,17.6989,17.9358,42.546,14.2012,65.1631-3.7346,22.6171-13.7726,43.6321-23.697,64.2958-2.224,4.6307-4.9896,9.7369-9.9297,11.1458-2.7227.7765-5.6267.2514-8.4057-.2897-26.2187-5.1047-53.2117-11.7291-74.0333-28.4604C17.3999,122.0706,4.5936,92.4979,14.9607,67.8808c2.4597-5.8407,6.3493-11.3893,12.0347-14.1894,9.3287-4.5945,20.5434-.6747,29.647,4.351,11.3265,6.2528,14.8003,13.6929,23.209,28.1219" fill="#FFFFFF" id="jV0oHnmD6XSQTsFIRbF2W" /><g id="v0kE5w31cJFUBbfoL4buj">
    <path d="M23.3643,80.4494c-.0527.3833-.1116.7656-.1714,1.147.0371-.2085.0928-.5698.1724-1.1504-.0002.001-.0005.0024-.001.0034Z" fill="#111111" id="kNH3TZcppV5D-ZAsC5ZRn" />
    <path d="M164.2481,61.3737c-3.2647-44.0635-52.7985-90.0261-83.2608-38.4731-5.1833,8.772-9.2566,18.4746-9.5805,28.708C10.7318-1.1237-18.4765,84.3965,13.0254,131.5105c21.6727,35.7616,67.6382,50.4666,107.2288,53.3306,12.7478-1.9616,17.6279-14.801,22.3933-25.1115,14.7225-30.5234,26.2086-64.0618,21.6006-98.356ZM35.9895,116.3381c-.0081-.0078-.0076-.0073,0,0h0ZM145.2918,83.6769c-2.3667,16.8709-9.4022,32.767-16.5419,48.2022-2.4347,5.0336-7.2248,15.2438-9.4855,18.312-1.5347,1.1113-.0142.5322-1.519.5591-5.7071-.3107-11.2294-2.1939-16.813-3.3425-31.2574-7.1913-67.3874-21.5102-76.5903-50.8773-.6133-2.6656-1.4011-5.3052-1.5884-8.0439-.0156-1.0606.097-4.4033-.0351-3.8013.1392-1.0337.313-2.0591.4744-3.0889-.1481.7797.0106-.6052.1797-1.2021-.0027.0195-.0046.0327-.0073.0518.5278-1.6125,1.0628-3.2162,1.7268-4.7812,3.375-7.184,10.6719-8.9197,18.3398-6.3771,6.577,2.1189,11.979,4.4457,16.6621,9.1237,5.663,6.5177,8.8924,14.6168,15.145,20.7141,3.7642,3.9367,9.3738,1.1564,11.7742-2.6155,2.165-3.4023,2.8047-7.4507,2.4817-11.4287,1.0613-1.9214,1.5247-4.7012.6726-6.377-3.3743-6.6353-5.3499-14.647-5.4578-22.1323-.0913-6.3345,3.0337-11.8755,6.7424-17.0352,8.4319-12.8502,20.6933-20.028,34.7582-10.244,17.4615,12.5685,21.7406,34.4248,19.0814,54.3841Z" fill="#111111" id="lQAs2Z1GeB5kNGAsTxbtX" />
  </g></g></g><g transform="translate(248 343)" data-asset-index="3"><g clip-path="url(#assetClipPath_t02n2AfF)" transform="scale(0.9995333213389335 1.00179061779963)" data-asset-index="3"><path d="M80.9837,69.2697c-17.7248-18.7883-13.7666-40.2088-8.0311-47.6703,8.0302-10.4469,24.7231-10.7792,35.7675-3.5929,11.0444,7.1863,17.326,19.8037,21.227,32.3896,8.2486,26.6124,7.9511,55.8026-.8381,82.2414-35.5381,4.9789-50.9613,5.4044-78.2574-6.294-17.1504-7.3502-34.6966-20.5214-39.7563-38.7368-5.4456-19.6046,1.7811-34.304,24.9859-34.1095,11.6281.0975,27.2622,7.2232,41.8256,20.5998" fill="#FFFFFF" id="p1jl9sVv9E1ZoT9hYBcuR" /><g id="jje2acm1v-TAJMUOwWaXe">
    <path d="M128.757,23.8932C104.6573-16.9929,50.8667-2.9635,59.8761,46.7784,35.9675,33.4173,3.2014,39.0364.2919,70.4012c-4.3355,51.0829,51.3434,81.888,96.4916,80.2757,11.081-.3541,21.7445-2.5226,32.6674-4.1061,3.8979-.5654,6.5415-3.3853,7.73-7.0952,11.7261-36.6079,11.519-81.6772-8.4238-115.5825ZM18.8332,74.7662c-.0088.0356-.0176.0732-.0249.1055.0005-.1655-.0034-.3291-.0024-.4951.001-.0015.0024-.0029.0034-.0044.0044.0859.0132.2271.0239.394ZM18.8063,74.3033s-.0005.0005-.0005.001v-.0146c0,.0024,0,.0103.0005.0137ZM18.695,75.3477c-.0264.1108-.0225.0913,0,0h0ZM83.464,120.6256c-21.8898-2.976-55.521-15.6096-63.7085-38.4756-.2459-.7993-.7708-4.0588-.8853-4.5278-.0404-.9079-.0712-1.7912-.0615-2.7031.0088-.0332.0181-.0659.0273-.0981.0024.0332.0044.0654.0063.0996.0162-.1496.0657-.3759.1275-.4883.3462-.6855.439-.9233.4087-.936.187-.2944.3726-.5894.5615-.8823.7402-.7422,1.5015-1.4639,2.3428-2.0928,17.9269-10.0084,38.2605,3.0658,51.4373,15.3389,4.7536,4.3413,10.2692-.3628,12.005-5.1392,1.563-4.3008,1.4868-9.8477-.5806-14.2129-.1855-1.0112-.4761-1.8999-.8662-2.5356-2.3457-3.8252-4.0718-8.7085-5.4512-13.0098-.7869-2.2575-1.1933-6.0453-1.6289-8.1738.0117-1.1436.0615-3.1387-.0303-2.8472.225-2.3147.8376-5.1778,1.8843-7.1582,6.2319-8.6187,20.0654-7.9512,28.6079-1.002,21.477,19.3187,22.4082,61.4781,15.2783,87.6636-12.9927,1.5645-26.5679,2.5288-39.4746,1.1807Z" fill="#111111" id="Bg4VQ-A3Lvw5ELg-G23OG" />
    <path d="M18.8424,74.9205c-.0391.2088-.0338.3952-.0312.6001.1191.9145.0727.0742.0312-.6001Z" fill="#111111" id="xKXVrppjxotYQr0mrLYKB" />
  </g></g></g><g transform="translate(1133 140)" data-asset-index="4"><g clip-path="url(#assetClipPath_bHBP0smV)" transform="scale(1.0020614959245568 0.9999571446937988)" data-asset-index="4"><path d="M130.9184,84.245c5.8939-9.5022,14.6213-17.0009,21.7723-25.5096,7.9548-9.4651,15.3915-16.2807,23.428-26.6249,3.7143-4.7809,5.6193-12.2423,3.7763-18.158-1.3616-4.3706-6.2168-8.6294-10.9475-5.7498-12.5543,7.6418-20.648,18.6395-28.4054,30.8865-7.5219,11.8752-11.9218,25.2931-19.3116,37.2071-1.952,3.147-2.4246,9.4238.8052,11.9523,3.6176,2.8321,7.1393-1.1928,8.8828-4.0036h0Z" fill="#111111" id="K6PSdhwrvoeEFO2Zi-CP" /><path d="M195.9197,139.8436c7.9863-2.0338,16.0943-3.0796,24.1203-5.0213,8.776-2.1231,16.6475-4.9493,24.6577-9.1059,6.7754-3.5159,10.3281-12.2091,9.7083-19.5926-.5386-6.4165-5.0286-12.3416-11.9459-9.4549-7.4696,3.1171-14.6258,6.4737-21.872,10.0848-7.1319,3.5542-14.4129,7.5264-22.0749,9.7146-5.6162,1.6039-8.8723,6.88-9.4886,12.5757-.3931,3.6323,1.2075,12.2481,6.8952,10.7997h0Z" fill="#111111" id="MQADytoRq4o76ABF7KbA4" /><path d="M44.6438,69.9096c-.0565-.1518-.7872-2.7929-.5545-1.354-.3236-2.0004.1599-4.1145-.146-6.1515-.4715-3.1398-1.4479-6.2565-2.2137-9.3327-1.4467-5.811-3.6613-11.2754-5.8538-16.8388-4.4516-11.2953-9.2317-22.018-15.401-32.4796-3.4652-5.8762-10.333-4.0715-14.2747.0806C1.6587,8.6174-1.7296,17.8645.948,24.3609c4.4868,10.8861,9.4297,21.1797,15.1331,31.4743,2.5155,4.5405,4.7766,9.3141,7.8429,13.506,3.0377,4.1528,5.7143,9.2097,10.9236,10.6924-.8652-.7002-1.7303-1.4003-2.5955-2.1005.8439.8724,1.4929,1.8722,1.9471,2.9993,1.7056,3.2622,5.6315,2.0676,7.6353-.0431,2.4972-2.6304,4.1343-7.4192,2.8093-10.9797h0Z" fill="#111111" id="H4-5AZWsfkd4hEnLqiCab" /></g></g><g transform="translate(1125 706)" data-asset-index="5"><g clip-path="url(#assetClipPath_5kC1QCSp)" transform="scale(1.0081191395199085 1.0009877216192846)" data-asset-index="5"><path d="M153.8304,1.7633c-5.314-4.374-10.8386.1265-12.7827,5.4727-7.281,20.0205-21.4866,40.5732-40.2073,52.9204-4.6506,3.0674-9.6619,5.7505-14.8801,7.9619-2.2241-12.7251-7.0256-26.2905-17.0276-33.354-12.2466-8.6494-32.5012-9.5259-45.6343-2.436C8.4505,40.3439,1.2769,58.2941,4.6641,74.6183c3.7629,18.1353,19.302,25.48,36.0139,28.1191,9.3281,1.4731,18.8496,1.3735,28.1921-.0078-.7576,2.6318-1.6877,5.2236-2.7913,7.729-10.4751,23.7812-35.9043,39.8359-61.5029,40.8159-6.4041.2456-5.9006,13.668.3496,14.2461,29.0432,2.686,58.8555-11.9155,72.4575-38.0811,4.7043-9.0493,7.8945-18.874,9.3459-28.9551.6548-.2153,1.3105-.4282,1.9607-.6548,34.3652-12.002,59.6472-41.7681,69.0081-76.4878,1.7168-6.3677,1.7463-14.9575-3.8674-19.5786ZM29.5308,72.0099c-2.5764-.9663-4.6018-2.103-6.6729-3.894-.3503-.3032-.8787-1.1743-1.1069-1.5049.082-.3452.1814-.707.2625-.9858.4048-1.2051,1.1094-2.7056,2.3596-4.1772,7.1489-8.4141,21.5535-8.7129,31.3499-5.9854,4.9497,1.3784,8.0955,3.4009,10.4004,7.9487,1.5671,3.0928,2.728,6.4355,3.5581,9.8486-1.2666.2671-2.5356.5112-3.8064.7163-11.7039,1.8867-25.0764,2.2612-36.3442-1.9663Z" fill="#111111" id="B4awITajxMYc3L5Dl9ZTG" /></g></g><g transform="translate(539 424)" data-asset-index="6"><g clip-path="url(#assetClipPath_9v7AziR3)" transform="scale(1.0001092834647496 0.9996677386394329)" data-asset-index="6"><path d="M256.0308,9.0824c26.6284.0794,39.5285,3.1409,66.1569,3.2203,2.0477,71.2622,52.7836,138.5583,120.731,160.1373-.8084,26.8617-1.6168,53.7235-2.4252,80.5852-24.9314-3.2201-49.3272-7.6681-69.8913-22.1271-23.5195-16.5371-46.3538-39.4523-53.9195-63.4253.052,97.3666,10.8437,186.4105,14.4097,283.7118,2.6656,72.735-12.2752,137.8346-98.191,152.6659-67.8258,11.7085-143.0877-10.4429-185.8691-64.3611-42.7814-53.9182-50.2781-143.6952-3.099-193.8106,37.3135-39.6358,69.0361-49.1218,130.1883-52.1707,2.2463,19.904-1.4232,67.9929-4.0646,70.7574-14.0757,14.7311-63.7256.6638-75.4838,50.569-6.2881,26.6885-1.1859,56.6391,15.7411,78.2099,16.9269,21.5708,61.7342,32.5266,94.2407,21.014,32.6012-11.5461,52.6983-50.5424,53.4316-85.1201,2.8294-133.43,3.3121-267.4376-7.4704-392.7319" fill="#FFFFFF" id="GUNjFXJoku5zDTIMWsiuK" /><path d="M445.223,157.647c-63.7344-19.7679-110.6618-79.8438-114.9622-145.5427-.3022-4.4842-2.4294-12.3709-8.375-12.0975-22.0054,1.0122-44.0461.77-66.0144,2.5776-5.8381.4805-5.4028,12.4619.3188,12.9961,19.6409,1.834,38.7576,6.4341,58.325,8.3823,4.8739,69.707,52.9236,134.9415,117.9785,160.3237-.5872,17.3115-1.1106,34.6255-1.6326,51.939-34.7719-4.2151-64.9299-20.9499-87.7827-47.566-7.7047-9.0941-13.575-17.5898-17.4275-29.5745-1.5554-4.8341-6.9685-9.3873-12.1738-7.1378-5.7458,2.4834-7.3884,10.251-7.4126,15.7861-1.0973,104.9198,15.1937,209.2598,14.2014,314.1186-.3513,5.8122-.9653,11.6117-1.7844,17.3765-.8134,5.551-1.7981,11.0817-3.1626,16.5254-1.7642,6.0933-3.6775,12.0942-6.2002,17.9248-.4509,1.0425-2.1555,4.4893-.6716,1.5703-20.9159,45.8139-76.8897,57.2329-122.7555,54.3838-58.0032-2.9797-116.7643-31.5051-144.7679-83.5337-19.3569-36.6043-24.6883-83.7937-6.8772-121.5029,9.8882-20.3819,26.9197-36.328,45.0256-49.4907,22.4212-15.7383,54.0679-22.3584,84.7673-24.0073-.1167,7.9795-.2501,15.9374-.8328,23.873.1172-1.0269.179-1.5718.2061-1.8135-.6283,6.2315-.9525,12.5832-1.915,18.7896-9.2249,4.057-19.5566,4.4712-29.2028,7.183-62.091,14.6221-62.7603,101.9121-30.3857,144.9439,26.1614,32.7131,78.6282,41.4953,115.7,23.7389,13.0796-6.9342,23.8348-17.4044,32.0042-29.6706,19.0797-27.9601,22.2151-62.3406,21.2639-95.2692,1.2051-121.066,1.7113-242.522-9.115-363.2063.063.5874-.6191-6.5107-.3804-3.7227-1.2379-21.3403-21.0977-21.4981-21.3325.524,6.1082,71.3632,8.2481,143.2782,8.3899,214.8788.0693,59.9005-.9936,119.8091-2.6312,179.6812-1.4215,16.6052-7.9066,32.5878-18.2538,45.6206.5198-.6821,2.0017-2.4517-.4993.6294l-.8599,1.0635c-15.6682,19.8296-43.0047,25.6973-69.7877,20.9939-11.1029-2.3178-22.4094-5.655-31.9446-12.8035-5.6515-4.0843-9.656-9.8386-13.0438-15.8495-1.4897-3.0054-3.1277-6.6859-4.2639-9.9277-3.0942-8.4586-4.317-20.2889-3.6306-28.4463.8358-9.2564,2.777-18.7868,8.5107-26.3208,4.2148-4.8075,9.5086-8.5766,15.4909-10.8425,11.1032-4.6998,23.2741-5.5959,34.775-8.9265,21.3378-5.6712,20.4773-23.0614,22.0894-41.3568,1.0156-12.4875,1.7304-25.0481,1.6664-37.5822-.447-9.349.9874-30.0727-12.1499-30.6704-32.008,1.4687-65.5634,4.6748-94.0793,20.5351-102.043,52.9524-101.3322,199.2718-23.5504,273.243,68.5346,65.9798,216.0765,82.8821,267.8778-11.0593,31.6164-68.6565,14.0072-147.0869,11.2818-219.7851-2.8837-42.7878-5.555-85.5544-6.9737-128.4123,19.2851,21.7893,42.165,40.7062,70.0868,49.25,13.8326,4.0972,28.2435,6.2613,42.5231,8.105,2.7825.3594,5.7891-2.6973,7.0667-4.7046,2.0894-3.2837,2.5935-7.2046,2.7046-11.0054.7856-26.8599,1.6533-53.7188,2.3022-80.582.1162-4.813-2.4092-12.8833-7.7236-14.5469ZM118.4181,481.3599c-1.3384-1.291-.4966-.521,0,0h0ZM160.8609,354.7124c-.0459.2324-.0984.4688-.155.7046-.2732.5098-.4224.4272.155-.7046ZM160.4654,356.3442c-.345,1.2388-.6169,1.9067,0,0h0Z" fill="#111111" id="I4l96u6fl3gk4Wf4JOMtO" /></g></g><g transform="translate(250 978) rotate(-12.722974145057135 154.5 133)" data-asset-index="7"><g clip-path="url(#assetClipPath_wIRlNa-f)" transform="scale(0.9817284138890743 0.9768242928122626)" data-asset-index="7"><g id="kXVxCuOsLXVN6nKWI3Eg">
    <path d="M190.456,16.344C138.108,6.49,77.127,3.935,38.944,41.077,11.973,67.312,2.483,108.61,9.564,145.563c9.399,49.054,25.928,73.886,72.844,98.212,33.403,17.319,73.484,18.259,110.57,11.912,26.535-4.541,52.946-13.967,73.084-31.833,30.915-27.427,49.071-91.798,35.056-130.676-14.016-38.878-53.111-67.339-94.415-68.731" fill="#FFFFFF" id="itXShYQJ07Eye8vKI_nNW" />
    <path d="M191.729,8.174C135.342-5.494,64.512-6.946,25.186,43.237,5.718,68.079-2.114,101.739.482,132.866c2.229,26.726,9.629,55.326,24.876,77.718,14.997,22.024,38.79,38.26,62.867,48.951,31.696,14.076,67.882,15.067,101.696,9.841,31.884-4.927,65.955-16.22,87.943-41.13,18.933-21.449,29.958-49.787,34.667-77.753,4.982-29.588,1.791-59.248-14.123-85.098-15.372-24.971-41.242-44.119-69.827-50.913-7.275-1.729-14.723-2.687-22.195-2.874-11.307-.282-10.826,25.019.63,25.68,26.145,1.508,50.872,13.822,68.547,33.042,8.557,9.304,14.12,19.381,18.45,30.935.864,2.306.223.656.072.133.163.567.322,1.137.466,1.71.34,1.357.671,2.713.953,4.083.246,1.196.466,2.398.662,3.603.144.889.617,5.101.391,2.613.252,2.777.419,5.558.475,8.347.031,1.535.033,3.071.005,4.606-.013.702-.205,5.382-.064,3.09-1.505,24.439-8.981,47.715-22.748,67.982-15.187,22.357-41.659,35.498-68.173,42.282-29.662,7.589-63.179,9.62-93.106,2.458-24.983-5.979-50.086-19.468-68.225-37.838-14.788-14.977-22.073-34.44-26.657-54.902-5.819-25.977-4.45-53.497,8.379-77.328C54.386,20.202,117.769,16.084,169.963,22.385c6.896.832,13.81,1.489,20.7,2.394,6.75.887,7.124-15.136,1.066-16.605h0Z" fill="#111111" id="d7xT6CMJcFcZKuCu7GdNZ" />
  </g><path d="M77.85,122.813c7.516-4.916,14.551-10.312,23.434-12.719,9.423-2.554,18.638-1.485,24.726,5.54,9.936,11.466,18.255-9.988,11.169-17.957-10.248-11.525-23.338-16.854-38.465-11.399-14.015,5.054-25.86,14.853-26.205,30.637-.043,1.963,2.115,8.008,5.341,5.897h0Z" fill="#111111" id="P8f9jGtYfiJIsIQWmNfzl" /><path d="M187.971,115.151c4.673-5.943,13.582-9.357,20.928-9.83,8.772-.565,18.317,3.856,22.555,10.675,3.615,5.816,9.96,3.641,12.58-1.612,2.931-5.878,1.991-14.232-2.835-18.854-9.617-9.212-21.37-14.726-34.842-11.922-14.035,2.921-21.829,12.099-25.252,25.751-1.045,4.168,3.077,10.611,6.866,5.793h0Z" fill="#111111" id="LO2Rh5odTAlYWi0KQLV13" /><path d="M94.847,161.055c2.529,3.415,3.685,7.743,6.38,11.197,2.245,2.878,4.9,5.554,7.547,8.055,5.21,4.921,11.454,8.655,17.922,11.704,11.703,5.517,24.671,7.78,37.553,8.124,12.484.333,24.78-2.884,35.381-9.518,5.357-3.352,10.396-7.159,15.135-11.335,6.801-5.993,13.329-11.884,14.146-21.575.47-5.576-.393-13.098-6.291-15.688-7.269-3.192-12.401,3.547-17.099,7.937-3.928,3.67-8.016,7.331-12.497,10.32-7.513,5.012-18.577,8.605-28.728,9.392-10.843.842-22.446.319-33.049-2.215-5.651-1.351-11.005-3.5-16.344-5.756-2.702-1.142-5.213-2.527-7.775-3.944-2.539-1.404-6.617-2.455-8.592-4.449-3.595-3.628-5.531,5.263-3.69,7.749h0Z" fill="#111111" id="uaigsRuQK2GyOiNQ09sDC" /></g></g></svg>